<svg width="36" height="36" viewBox="0 0 36 36" fill="none" xmlns="http://www.w3.org/2000/svg">
<g clip-path="url(#clip0_404_9566)">
<path d="M0 8.98745C0 10.4937 0.552301 12.1506 1.25523 13.9079C1.95816 15.6653 2.86192 17.3222 3.56485 18.5774C5.4728 21.8912 7.93305 25.1548 10.7448 27.8661C13.5565 30.5774 16.8703 32.8368 20.5858 34.1925C22.7448 35.046 24.9038 36 27.3138 36C28.5188 36 30.2259 35.5481 31.7824 34.8954C33.2887 34.2427 34.6444 33.2385 35.1464 32.0335C35.3473 31.5816 35.5983 30.9791 35.749 30.2762C35.8996 29.6234 36 28.9707 36 28.5188C36 28.2678 36 28.0167 35.9498 27.9665C35.7992 27.6653 35.4477 27.4142 35.046 27.1632C34.1423 26.7113 33.9916 26.5607 32.636 25.7573C31.2301 24.954 29.7741 24.0502 28.5188 23.3975C27.9163 23.046 27.5146 22.8954 27.364 22.8954C26.5607 22.8954 25.5565 24 24.7029 25.205C23.7992 26.41 22.795 27.5146 22.0921 27.5146C21.7406 27.5146 21.3891 27.364 20.9874 27.113C20.5858 26.8619 20.1841 26.6611 19.9331 26.5105C15.5146 24 12.5523 21.0377 10.0418 16.6695C9.74059 16.1674 9.03766 15.113 9.03766 14.5607C9.03766 13.9079 9.94142 13.1548 10.8452 12.3515C11.6987 11.5983 12.6025 10.6946 12.6025 9.58996C12.6025 9.43933 12.5021 8.98745 12.3013 8.33473C11.8494 7.02929 11.2469 5.52301 10.7448 4.06695C10.4937 3.36402 10.2929 2.86192 10.2427 2.61088C10.1423 2.46025 10.0921 2.25941 10.0418 2.00837C9.99163 1.75732 9.89121 1.55649 9.841 1.35565C9.69038 0.903766 9.43933 0.552301 9.18828 0.351464C8.93724 0.251046 8.33473 0.100418 7.73222 0.0502092C7.12971 0.0502092 6.42678 0 6.12552 0C5.9749 0 5.77406 0 5.57322 0.0502092H4.9205C3.31381 0.753138 2.159 2.159 1.30544 3.8159C0.502092 5.4728 0 7.33054 0 8.98745Z" fill="white"/>
</g>
<defs>
<clipPath id="clip0_404_9566">
<rect width="36" height="36" fill="white"/>
</clipPath>
</defs>
</svg>
