<svg width="36" height="37" viewBox="0 0 36 37" fill="none" xmlns="http://www.w3.org/2000/svg">
<g clip-path="url(#clip0_1003_17065)">
<path d="M0 9.48745C0 10.9937 0.552301 12.6506 1.25523 14.408C1.95816 16.1653 2.86192 17.8222 3.56485 19.0774C5.4728 22.3912 7.93305 25.6548 10.7448 28.3661C13.5565 31.0774 16.8703 33.3368 20.5858 34.6925C22.7448 35.546 24.9038 36.5 27.3138 36.5C28.5188 36.5 30.2259 36.0481 31.7824 35.3954C33.2887 34.7427 34.6444 33.7385 35.1464 32.5335C35.3473 32.0816 35.5983 31.4791 35.749 30.7762C35.8996 30.1234 36 29.4707 36 29.0188C36 28.7678 36 28.5167 35.9498 28.4665C35.7992 28.1653 35.4477 27.9142 35.046 27.6632C34.1423 27.2113 33.9916 27.0607 32.636 26.2573C31.2301 25.454 29.7741 24.5502 28.5188 23.8975C27.9163 23.546 27.5146 23.3954 27.364 23.3954C26.5607 23.3954 25.5565 24.5 24.7029 25.705C23.7992 26.91 22.795 28.0146 22.0921 28.0146C21.7406 28.0146 21.3891 27.864 20.9874 27.613C20.5858 27.3619 20.1841 27.1611 19.9331 27.0105C15.5146 24.5 12.5523 21.5377 10.0418 17.1695C9.74059 16.6674 9.03766 15.613 9.03766 15.0607C9.03766 14.408 9.94142 13.6548 10.8452 12.8515C11.6987 12.0983 12.6025 11.1946 12.6025 10.09C12.6025 9.93933 12.5021 9.48745 12.3013 8.83473C11.8494 7.52929 11.2469 6.02301 10.7448 4.56695C10.4937 3.86402 10.2929 3.36192 10.2427 3.11088C10.1423 2.96025 10.0921 2.75941 10.0418 2.50837C9.99163 2.25732 9.89121 2.05649 9.841 1.85565C9.69038 1.40377 9.43933 1.0523 9.18828 0.851464C8.93724 0.751046 8.33473 0.600418 7.73222 0.550209C7.12971 0.550209 6.42678 0.5 6.12552 0.5C5.9749 0.5 5.77406 0.5 5.57322 0.550209H4.9205C3.31381 1.25314 2.159 2.659 1.30544 4.3159C0.502092 5.9728 0 7.83054 0 9.48745Z" fill="black"/>
</g>
<defs>
<clipPath id="clip0_1003_17065">
<rect width="36" height="36" fill="white" transform="translate(0 0.5)"/>
</clipPath>
</defs>
</svg>
