<svg width="32" height="32" viewBox="0 0 32 32" fill="none" xmlns="http://www.w3.org/2000/svg">
<path d="M27.7229 3.80335C27.5878 3.66344 27.4171 3.56656 27.2308 3.52412C27.0446 3.48169 26.8506 3.49544 26.6717 3.56378L4.6461 11.8967C4.45615 11.9716 4.29261 12.105 4.17721 12.2789C4.06181 12.4529 4 12.6592 4 12.8706C4 13.082 4.06181 13.2883 4.17721 13.4623C4.29261 13.6362 4.45615 13.7695 4.6461 13.8445L13.2461 17.4172L19.5934 10.7926L21.0051 12.2613L14.6277 18.8963L18.0717 27.8438C18.1459 28.0376 18.2743 28.2038 18.4403 28.3208C18.6063 28.4378 18.8022 28.5002 19.0028 28.5C19.2051 28.4957 19.4014 28.4277 19.5658 28.305C19.7302 28.1822 19.8551 28.0105 19.9238 27.8125L27.9331 4.89705C28.0013 4.71276 28.0178 4.5121 27.9806 4.31846C27.9433 4.12481 27.854 3.94617 27.7229 3.80335Z" fill="white"/>
</svg>
