<svg width="131" height="104" viewBox="0 0 131 104" fill="none" xmlns="http://www.w3.org/2000/svg">
<g clip-path="url(#clip0_1788_18250)">
<rect width="131" height="104" fill="#E9213F"/>
<path d="M88.5608 48.1367C84.7121 61.3228 75.1934 68.8388 65.0237 68.8388C54.8539 68.8388 45.3352 61.3228 41.5195 48.1532" stroke="white" stroke-width="4" stroke-linecap="round" stroke-linejoin="round"/>
<path d="M42.3457 27.4453C40.4794 31.3357 39.8386 35.7012 40.5079 39.9638" stroke="white" stroke-width="4" stroke-linecap="round" stroke-linejoin="round"/>
<path d="M44.1172 41.7275C50.3953 40.0524 56.3715 37.4021 61.8277 33.8736C62.4482 36.8583 61.8837 39.9673 60.2536 42.5434C60.2536 42.5434 70.7613 40.2688 74.7171 32.3242C76.6867 35.3817 79.3734 38.6453 83.4364 40.5655" stroke="white" stroke-width="4" stroke-linecap="round" stroke-linejoin="round"/>
<path d="M41.2319 39.7344C39.6845 39.7918 38.2197 40.4469 37.1454 41.562C36.071 42.677 35.4707 44.165 35.4707 45.7134C35.4707 47.2618 36.071 48.7499 37.1454 49.865C38.2197 50.98 39.6845 51.635 41.2319 51.6925C41.4049 51.6925 41.578 51.6925 41.7511 51.6925" stroke="white" stroke-width="4" stroke-linecap="round" stroke-linejoin="round"/>
<path d="M46.6388 74.207C42.9467 75.5504 31.3842 78.8963 29.0519 82.2835C24.4038 89.0661 24 99.2029 24 99.2029" stroke="white" stroke-width="4" stroke-linecap="round" stroke-linejoin="round"/>
<path d="M68.7726 81.6055C66.2042 82.1019 63.5645 82.1019 60.9961 81.6055" stroke="white" stroke-width="3" stroke-linecap="round" stroke-linejoin="round"/>
<path d="M83.4199 74.1875C87.112 75.5308 98.6828 78.8686 101.015 82.2557C105.671 89.0383 106.083 99.1751 106.083 99.1751" stroke="white" stroke-width="4" stroke-linecap="round" stroke-linejoin="round"/>
<path d="M81.0121 99.9981L81.0039 95.0122L92.7477 95.0039L92.756 99.9981" stroke="white" stroke-width="4" stroke-linecap="round" stroke-linejoin="round"/>
<path d="M88.2832 51.6448C88.4563 51.6448 88.6293 51.6448 88.8106 51.6448C90.3612 51.6081 91.8337 50.9573 92.9046 49.8354C93.9756 48.7134 94.5572 47.2122 94.5219 45.6616C94.5206 45.0679 94.4374 44.4772 94.2746 43.9062" stroke="white" stroke-width="4" stroke-linecap="round" stroke-linejoin="round"/>
<path d="M78.3925 17.1364C76.7921 16.3553 75.1006 15.7766 73.357 15.414C68.0909 14.3261 62.6928 14.4168 57.4266 13.0982C54.5142 12.4314 51.6484 11.5753 48.8475 10.5352C48.8475 10.5352 48.4436 14.8206 49.96 16.9633C47.1176 17.3843 44.2308 17.412 41.3809 17.0458C41.3809 17.0458 42.7324 21.1664 45.691 22.4191" stroke="white" stroke-width="4" stroke-linecap="round" stroke-linejoin="round"/>
<path d="M104.893 24.7458C99.9477 25.7183 98.6786 27.2182 97.9451 33.6711C97.9451 33.7716 97.9052 33.8681 97.8341 33.9392C97.763 34.0103 97.6665 34.0502 97.566 34.0502C97.4655 34.0502 97.369 34.0103 97.2979 33.9392C97.2268 33.8681 97.1869 33.7716 97.1869 33.6711C96.4534 27.177 95.209 25.7183 90.2395 24.7458C90.1525 24.7275 90.0744 24.6799 90.0183 24.6109C89.9622 24.5418 89.9316 24.4556 89.9316 24.3667C89.9316 24.2777 89.9622 24.1915 90.0183 24.1225C90.0744 24.0535 90.1525 24.0058 90.2395 23.9876C95.1843 23.0234 96.4534 21.5647 97.1869 15.0705C97.1869 14.97 97.2268 14.8736 97.2979 14.8025C97.369 14.7314 97.4655 14.6914 97.566 14.6914C97.6665 14.6914 97.763 14.7314 97.8341 14.8025C97.9052 14.8736 97.9451 14.97 97.9451 15.0705C98.6786 21.5647 99.923 23.0234 104.893 23.9876C104.98 24.0058 105.058 24.0535 105.114 24.1225C105.17 24.1915 105.2 24.2777 105.2 24.3667C105.2 24.4556 105.17 24.5418 105.114 24.6109C105.058 24.6799 104.98 24.7275 104.893 24.7458V24.7458Z" stroke="white" stroke-width="3" stroke-linecap="round" stroke-linejoin="round"/>
<path d="M89.7163 7.39331C86.0325 8.1103 85.1095 9.18991 84.5738 13.9863C84.5623 14.0534 84.5275 14.1143 84.4755 14.1582C84.4234 14.2021 84.3575 14.2262 84.2894 14.2262C84.2214 14.2262 84.1555 14.2021 84.1035 14.1582C84.0514 14.1143 84.0166 14.0534 84.0051 13.9863C83.4612 9.17343 82.5382 8.09382 78.8626 7.39331C78.7998 7.37798 78.744 7.34206 78.7041 7.29125C78.6643 7.24045 78.6426 7.17768 78.6426 7.11309C78.6426 7.04849 78.6643 6.98578 78.7041 6.93497C78.744 6.88417 78.7998 6.84824 78.8626 6.83291C82.5382 6.10768 83.4612 5.03631 84.0051 0.239885C84.0166 0.17278 84.0514 0.111904 84.1035 0.0680067C84.1555 0.0241096 84.2214 0 84.2894 0C84.3575 0 84.4234 0.0241096 84.4755 0.0680067C84.5275 0.111904 84.5623 0.17278 84.5738 0.239885C85.1095 5.05279 86.0325 6.12416 89.7163 6.83291C89.7791 6.84824 89.8349 6.88417 89.8748 6.93497C89.9147 6.98578 89.9363 7.04849 89.9363 7.11309C89.9363 7.17768 89.9147 7.24045 89.8748 7.29125C89.8349 7.34206 89.7791 7.37798 89.7163 7.39331Z" stroke="white" stroke-width="3" stroke-linecap="round" stroke-linejoin="round"/>
</g>
<defs>
<clipPath id="clip0_1788_18250">
<rect width="131" height="104" fill="white"/>
</clipPath>
</defs>
</svg>
