<svg width="131" height="104" viewBox="0 0 131 104" fill="none" xmlns="http://www.w3.org/2000/svg">
<rect width="131" height="104" fill="#E9213F"/>
<path d="M29.2151 96.9986C27.8464 83.5407 8.68419 79.5321 6.66042 56.6824C4.63665 33.8327 7.5794 19.5 11.2163 19.5C14.8532 19.5 17.6005 23.5278 18.5097 29.3531C19.419 35.1785 20.3282 42.5708 20.3282 42.5708" stroke="white" stroke-width="4" stroke-linecap="round" stroke-linejoin="round"/>
<path d="M46.3011 96.9954C46.3011 92.2636 46.6304 84.4839 44.6061 80.4295C42.5817 76.3752 31.5105 65.5377 29.4668 56.7516C27.423 47.9655 20.6621 47.2785 20.6621 54.0422C20.6621 60.806 24.5365 70.0565 24.5365 70.0565" stroke="white" stroke-width="4" stroke-linecap="round" stroke-linejoin="round"/>
<path d="M101.305 96.9986C102.673 83.5407 121.835 79.5321 123.858 56.6824C125.882 33.8327 122.949 19.5 119.303 19.5C115.656 19.5 112.919 23.5278 112.01 29.3531C111.1 35.1785 110.191 42.5708 110.191 42.5708" stroke="white" stroke-width="4" stroke-linecap="round" stroke-linejoin="round"/>
<path d="M84.2206 96.9954C84.2206 92.264 83.8812 84.4847 85.9078 80.4306C87.9343 76.3765 99.0174 65.5495 101.044 56.7543C103.071 47.9592 109.858 47.2818 109.858 54.0451C109.858 60.8084 105.979 70.0583 105.979 70.0583" stroke="white" stroke-width="4" stroke-linecap="round" stroke-linejoin="round"/>
<path d="M70.0991 10.1135L70.099 10.1133L70.0916 10.1198C68.1421 11.8382 66.4956 13.8938 65.2242 16.1942C63.5033 13.1291 61.6483 10.7998 59.3562 9.22219C56.9606 7.57342 54.1088 6.76044 50.4798 6.76037C48.2933 6.75185 46.1271 7.19381 44.1066 8.06037C42.086 8.92698 40.2515 10.2009 38.7091 11.808L38.7081 11.8091C35.6193 15.0677 33.8786 19.448 33.8538 24.0169C33.8062 27.7967 34.5109 31.5461 35.9239 35.0303C37.3364 38.5133 39.4264 41.6564 42.0636 44.2625C47.1841 49.7326 54.6991 54.7188 64.1981 60.7331L64.198 60.7332L64.2032 60.7363C64.4891 60.9078 64.8142 60.9984 65.1457 60.9984C65.4764 60.9984 65.8008 60.9082 66.0862 60.7375C76.6627 54.6532 84.2478 49.6489 89.1612 44.0875C91.6548 41.4427 93.6042 38.2994 94.8913 34.8488C96.1782 31.3985 96.7762 27.7128 96.6492 24.0155C96.6617 21.7481 96.2411 19.5003 95.4115 17.4023C94.5813 15.3027 93.358 13.3946 91.8119 11.7887C90.2657 10.1828 88.4276 8.91108 86.4037 8.04774C84.3815 7.18511 82.2143 6.74743 80.0276 6.76034C76.4395 6.62545 72.9223 7.81399 70.0991 10.1135ZM72.4298 13.0598L72.74 12.7699C74.8417 11.2095 77.3913 10.4274 79.9786 10.557L79.9786 10.5572L79.9892 10.5573C83.4153 10.5833 86.6963 12.0073 89.1235 14.5252C91.5509 17.0434 92.9294 20.4539 92.9587 24.0212H92.9586L92.9588 24.0281C93.0741 27.2419 92.5625 30.4464 91.4548 33.4491C90.3472 36.4518 88.6666 39.1901 86.5146 41.4999L86.5146 41.4998L86.5119 41.5029C82.0031 46.5038 75.0128 51.201 65.3131 56.9486C56.4021 51.2852 49.4574 46.6047 44.7032 41.583L44.7033 41.5829L44.6971 41.5767C42.4053 39.3195 40.5845 36.5963 39.3482 33.5761C38.1119 30.5558 37.4866 27.3034 37.5117 24.021L37.5117 24.0191C37.5116 22.248 37.8477 20.4943 38.5006 18.8587C39.1534 17.2236 40.1099 15.7387 41.3149 14.4888C43.769 11.9977 47.0532 10.5901 50.4805 10.5573C53.7087 10.5575 56.1394 11.4248 58.184 13.1567C60.2388 14.8972 61.9214 17.5256 63.6178 21.0834L63.6176 21.0835L63.6228 21.0934C63.8486 21.517 64.2203 21.8399 64.6669 21.9957C65.1138 22.1517 65.601 22.128 66.0316 21.9299C66.407 21.7573 66.7158 21.4629 66.9127 21.0934L66.9187 21.0822L66.9235 21.0705C68.1748 18.0144 70.0544 15.2803 72.4298 13.0598Z" fill="white" stroke="white" stroke-width="0.5"/>
</svg>
