<svg width="131" height="104" viewBox="0 0 131 104" fill="none" xmlns="http://www.w3.org/2000/svg">
<rect width="131" height="104" fill="#E9213F"/>
<path d="M111.564 85.4225H104.066V63.7969C104.081 63.2101 103.862 62.6412 103.459 62.215C103.055 61.7888 102.499 61.5401 101.912 61.5234H91.9326C91.6414 61.5307 91.3544 61.5953 91.0881 61.7135C90.8218 61.8317 90.5814 62.0011 90.3806 62.2123C90.1799 62.4234 90.0227 62.672 89.9181 62.9439C89.8134 63.2158 89.7634 63.5057 89.7708 63.7969V85.4225H82.2724C82.0505 85.4349 81.8371 85.5118 81.6583 85.6438C81.4796 85.7758 81.3433 85.9572 81.2662 86.1657C81.1891 86.3741 81.1745 86.6005 81.2243 86.8171C81.2742 87.0337 81.3861 87.231 81.5466 87.3848L88.2313 93.918L96.2082 101.696C96.3039 101.792 96.4176 101.868 96.5429 101.92C96.6681 101.972 96.8025 101.999 96.9381 101.999C97.0738 101.999 97.2082 101.972 97.3334 101.92C97.4587 101.868 97.5724 101.792 97.668 101.696L105.645 93.918L112.33 87.3848C112.492 87.2286 112.605 87.0277 112.653 86.8077C112.701 86.5876 112.683 86.3581 112.601 86.1482C112.519 85.9383 112.377 85.7574 112.193 85.6282C112.008 85.499 111.789 85.4275 111.564 85.4225Z" stroke="white" stroke-width="4" stroke-linecap="round" stroke-linejoin="round"/>
<path d="M46.4551 46.7812L56.2588 55.6277L66.0625 46.7812" stroke="white" stroke-width="4" stroke-linecap="round" stroke-linejoin="round"/>
<path d="M56.2598 55.6289V80.7085" stroke="white" stroke-width="4" stroke-linecap="round" stroke-linejoin="round"/>
<path d="M46.5195 60H65.9993" stroke="white" stroke-width="4" stroke-linecap="round" stroke-linejoin="round"/>
<path d="M45.418 70.0508H67.1074" stroke="white" stroke-width="4" stroke-linecap="round" stroke-linejoin="round"/>
<path d="M65.5836 17.3796C69.475 13.221 71.5652 7.69296 71.3988 2C71.3988 2 64.8576 2.72593 56.2425 2.72593C47.6273 2.72593 41.0862 2 41.0862 2C40.9124 7.69271 43.0004 13.2226 46.8935 17.3796" stroke="white" stroke-width="4" stroke-linecap="round" stroke-linejoin="round"/>
<path d="M65.5369 24C59.4094 25.1913 53.1099 25.1913 46.9824 24" stroke="white" stroke-width="4" stroke-linecap="round" stroke-linejoin="round"/>
<path d="M91.9317 53.6098H92.0354C85.909 36.4753 70.9043 28.9609 70.9043 28.9609" stroke="white" stroke-width="4" stroke-linecap="round" stroke-linejoin="round"/>
<path d="M41.6217 28.9609C41.6217 28.9609 20.6821 39.4347 18.1773 63.8842C17.0207 75.1716 21.4878 85.6055 32.5838 91.8834C39.3004 95.6804 48.5377 97.0844 56.2594 97.0844C62.7447 97.0844 70.259 96.0952 76.4891 93.5346" stroke="white" stroke-width="4" stroke-linecap="round" stroke-linejoin="round"/>
</svg>
