<svg width="131" height="104" viewBox="0 0 131 104" fill="none" xmlns="http://www.w3.org/2000/svg">
<rect width="131" height="104" fill="#E9213F"/>
<path d="M92.2703 36.0772C92.2703 38.0628 88.952 39.5918 88.4535 41.4252C87.955 43.2586 90.0011 46.2586 89.019 47.9471C88.0369 49.6355 84.354 49.3529 82.9552 50.7152C81.5565 52.0776 81.8392 55.6429 80.113 56.6211C78.3869 57.5994 75.3885 55.5632 73.4169 56.0704C71.4452 56.5777 69.9572 59.7879 67.9186 59.7879C65.88 59.7879 64.3101 56.556 62.4277 56.0704C60.5453 55.5849 57.4651 57.5777 55.7315 56.6211C53.9979 55.6646 54.2881 52.0776 52.8893 50.7152C51.4906 49.3529 47.83 49.6355 46.8256 47.9471C45.8212 46.2586 47.9118 43.3528 47.391 41.4252C46.8702 39.4976 43.5742 38.0628 43.5742 36.0772C43.5742 34.0917 46.8925 32.5554 47.391 30.7221C47.8895 28.8887 45.8435 25.8886 46.8256 24.2002C47.8077 22.5117 51.4906 22.8016 52.8893 21.432C54.2881 20.0624 53.9979 16.5044 55.7315 15.5261C57.4651 14.5478 60.456 16.5841 62.4277 16.0768C64.3993 15.5696 65.88 12.3594 67.9186 12.3594C69.9572 12.3594 71.5345 15.5913 73.4169 16.0768C75.2992 16.5624 78.3795 14.5696 80.113 15.5334C81.8466 16.4971 81.549 20.0697 82.9552 21.432C84.3614 22.7943 88.0145 22.519 89.019 24.2002C90.0234 25.8814 87.9327 28.8017 88.4535 30.7221C88.9743 32.6424 92.2703 34.0917 92.2703 36.0772Z" stroke="white" stroke-width="3" stroke-linecap="round" stroke-linejoin="round"/>
<path d="M67.9481 51.0786C76.454 51.0786 83.3493 44.3627 83.3493 36.0784C83.3493 27.794 76.454 21.0781 67.9481 21.0781C59.4422 21.0781 52.5469 27.794 52.5469 36.0784C52.5469 44.3627 59.4422 51.0786 67.9481 51.0786Z" stroke="white" stroke-width="3" stroke-linecap="round" stroke-linejoin="round"/>
<path d="M60.8429 62.3809L54.3774 76.2938L50.3002 71.4678L43.8867 71.6707L50.3523 57.7578" stroke="white" stroke-width="3" stroke-linecap="round" stroke-linejoin="round"/>
<path d="M75.0625 62.3809L81.528 76.2938L85.6052 71.4678L92.0187 71.6707L85.5532 57.7578" stroke="white" stroke-width="3" stroke-linecap="round" stroke-linejoin="round"/>
<path d="M111.927 92.4796C111.927 94.2092 111.221 95.868 109.965 97.0911C108.709 98.3141 107.006 99.0012 105.23 99.0012H98.7871V86.7188" stroke="white" stroke-width="4" stroke-linecap="round" stroke-linejoin="round"/>
<path d="M28.755 22.0437V71.4215H23.5469C22.2455 71.4248 20.9733 71.7973 19.8858 72.4935C18.7983 73.1898 17.9427 74.1796 17.4236 75.3419L16.873 77.9217V15.5219C16.873 13.7922 17.5785 12.1333 18.8343 10.9102C20.0901 9.68713 21.7933 9 23.5692 9H28.7774L28.755 22.0437Z" stroke="white" stroke-width="4" stroke-linecap="round" stroke-linejoin="round"/>
<path d="M39.3934 23.6094H28.7539" stroke="white" stroke-width="4" stroke-linecap="round" stroke-linejoin="round"/>
<path d="M16.8496 77.9237C16.8496 78.9825 17.0639 80.0309 17.4801 81.0091C17.8963 81.9872 18.5064 82.8759 19.2755 83.6242C20.0445 84.3726 20.9575 84.966 21.9621 85.3705C22.9668 85.7751 24.0434 85.9828 25.1305 85.9818H105.284C107.06 85.9818 108.763 86.6689 110.019 87.892C111.275 89.1151 111.98 90.774 111.98 92.5037V30.1039C111.98 28.3742 111.275 26.7153 110.019 25.4922C108.763 24.2692 107.06 23.582 105.284 23.582H96.5119" stroke="white" stroke-width="4" stroke-linecap="round" stroke-linejoin="round"/>
</svg>
