<svg width="131" height="104" viewBox="0 0 131 104" fill="none" xmlns="http://www.w3.org/2000/svg">
<rect width="131" height="104" fill="#E9213F"/>
<path d="M27.5117 79.3086L32.1701 83.5069L36.8231 79.3086" stroke="white" stroke-width="3" stroke-linecap="round" stroke-linejoin="round"/>
<path d="M32.1699 83.5039V95.4168" stroke="white" stroke-width="3" stroke-linecap="round" stroke-linejoin="round"/>
<path d="M27.543 85.582H36.7962" stroke="white" stroke-width="3" stroke-linecap="round" stroke-linejoin="round"/>
<path d="M27.0137 90.3516H37.3191" stroke="white" stroke-width="3" stroke-linecap="round" stroke-linejoin="round"/>
<path d="M38.3561 73.2148C38.3561 73.2148 47.2022 77.6405 48.2597 87.9671C48.7514 92.7259 46.8637 97.1463 42.1737 99.8007C39.3343 101.387 35.4373 102 32.1696 102C28.9019 102 24.9997 101.408 22.1603 99.8007C17.4755 97.1569 15.5879 92.7365 16.0743 87.9671C17.1318 77.6405 25.9832 73.2148 25.9832 73.2148" stroke="white" stroke-width="3" stroke-linecap="round" stroke-linejoin="round"/>
<path d="M36.11 68.3187C37.7534 66.5613 38.6353 64.2254 38.5634 61.8203C38.5634 61.8203 35.8033 62.127 32.1708 62.127C28.5382 62.127 25.7728 61.8203 25.7728 61.8203C25.7083 64.23 26.602 66.5669 28.258 68.3187" stroke="white" stroke-width="3" stroke-linecap="round" stroke-linejoin="round"/>
<path d="M36.0876 71.1289C33.4977 71.6295 30.8359 71.6295 28.2461 71.1289" stroke="white" stroke-width="3" stroke-linecap="round" stroke-linejoin="round"/>
<path d="M69.5879 11.7109V14.7909" stroke="white" stroke-width="4" stroke-linecap="round" stroke-linejoin="round"/>
<path d="M69.5879 76.4961V79.576" stroke="white" stroke-width="4" stroke-linecap="round" stroke-linejoin="round"/>
<path d="M103.517 45.6445H100.438" stroke="white" stroke-width="4" stroke-linecap="round" stroke-linejoin="round"/>
<path d="M38.7322 45.6445H35.6523" stroke="white" stroke-width="4" stroke-linecap="round" stroke-linejoin="round"/>
<path d="M78.278 62.565L69.5879 45.6454V23.043" stroke="white" stroke-width="4" stroke-linecap="round" stroke-linejoin="round"/>
<path d="M69.5888 48.1777C70.9863 48.1777 72.1191 47.0449 72.1191 45.6474C72.1191 44.25 70.9863 43.1172 69.5888 43.1172C68.1914 43.1172 67.0586 44.25 67.0586 45.6474C67.0586 47.0449 68.1914 48.1777 69.5888 48.1777Z" stroke="white" stroke-width="4" stroke-linecap="round" stroke-linejoin="round"/>
<path d="M60.5428 80.866C68.2968 82.8603 76.4922 82.2408 83.8583 79.1035C91.2244 75.9662 97.3497 70.4864 101.285 63.5137C105.22 56.541 106.744 48.4649 105.622 40.5375C104.5 32.6101 100.794 25.2743 95.0791 19.6674C89.3637 14.0605 81.9583 10.4957 74.0108 9.52579C66.0634 8.55585 58.018 10.2349 51.1219 14.3027C44.2259 18.3704 38.8644 24.5996 35.8688 32.0245C32.8732 39.4494 32.4107 47.6551 34.5532 55.3696" stroke="white" stroke-width="4" stroke-linecap="round" stroke-linejoin="round"/>
<path d="M60.543 88.3608C69.7789 90.3144 79.3991 89.2213 87.9613 85.2455C96.5234 81.2698 103.566 74.6256 108.033 66.3092C112.5 57.9928 114.151 48.4524 112.738 39.1186C111.325 29.7847 106.924 21.1605 100.195 14.5391C93.4668 7.91762 84.773 3.65578 75.4178 2.39261C66.0625 1.12944 56.5498 2.93302 48.3061 7.5329C40.0625 12.1328 33.5321 19.281 29.6942 27.9059C25.8563 36.5307 24.9177 46.1672 27.0192 55.3705" stroke="white" stroke-width="4" stroke-linecap="round" stroke-linejoin="round"/>
</svg>
