<svg width="28" height="28" viewBox="0 0 28 28" fill="none" xmlns="http://www.w3.org/2000/svg">
<path fill-rule="evenodd" clip-rule="evenodd" d="M1.63967e-07 14C7.34125e-08 21.5938 6.15625 27.75 13.75 27.75C21.3437 27.75 27.5 21.5938 27.5 14C27.5 6.40625 21.3437 0.25 13.75 0.25C6.15625 0.25 2.54522e-07 6.40625 1.63967e-07 14ZM9.63375 16.7588C9.398 16.9864 9.08224 17.1124 8.7545 17.1096C8.42675 17.1067 8.11324 16.9753 7.88148 16.7435C7.64972 16.5118 7.51825 16.1982 7.51541 15.8705C7.51256 15.5428 7.63855 15.227 7.86625 14.9913L12.8662 9.99125C13.1007 9.75691 13.4185 9.62527 13.75 9.62527C14.0815 9.62527 14.3993 9.75691 14.6337 9.99125L19.6337 14.9913C19.8614 15.227 19.9874 15.5428 19.9846 15.8705C19.9817 16.1982 19.8503 16.5118 19.6185 16.7435C19.3868 16.9753 19.0732 17.1067 18.7455 17.1096C18.4178 17.1124 18.102 16.9864 17.8662 16.7588L13.75 12.6425L9.63375 16.7588Z" fill="black"/>
</svg>
