<svg width="22" height="45" viewBox="0 0 22 45" fill="none" xmlns="http://www.w3.org/2000/svg">
<path d="M19.3672 34.2695L18.9844 37.0176C18.0911 37.1452 17.1022 37.209 16.0176 37.209C14.3223 37.209 13.0918 36.9355 12.3262 36.3887C11.6608 35.9238 11.1139 35.1126 10.6855 33.9551L10.0703 32.3145C7.32682 32.1139 5.20312 30.929 3.69922 28.7598C2.35026 26.8092 1.67578 24.2845 1.67578 21.1855C1.67578 17.4212 2.65104 14.5273 4.60156 12.5039C6.24219 10.7904 8.375 9.93359 11 9.93359C14.0352 9.93359 16.3867 11.0365 18.0547 13.2422C19.5495 15.2109 20.2969 17.8405 20.2969 21.1309C20.2969 24.2936 19.6042 26.8594 18.2188 28.8281C17.043 30.4961 15.4844 31.5625 13.543 32.0273L13.9121 33.0938C14.14 33.668 14.4681 34.0599 14.8965 34.2695C15.2884 34.4701 15.8672 34.5703 16.6328 34.5703C17.4531 34.5703 18.3646 34.4701 19.3672 34.2695ZM11 12.873C9.24089 12.873 7.89648 13.6523 6.9668 15.2109C6.11003 16.6419 5.68164 18.6243 5.68164 21.1582C5.68164 24.0384 6.23307 26.2122 7.33594 27.6797C8.25651 28.901 9.47786 29.5117 11 29.5117C12.75 29.5117 14.0898 28.7142 15.0195 27.1191C15.8672 25.6699 16.291 23.6829 16.291 21.1582C16.291 18.2598 15.7441 16.0951 14.6504 14.6641C13.748 13.4701 12.5312 12.873 11 12.873Z" fill="black"/>
</svg>
