<svg width="27" height="27" viewBox="0 0 27 27" fill="none" xmlns="http://www.w3.org/2000/svg">
<g clip-path="url(#clip0_2851_259)">
<g filter="url(#filter0_d_2851_259)">
<path fill-rule="evenodd" clip-rule="evenodd" d="M3.15199 6.35143C3.32554 5.77146 3.86669 5.34375 4.5 5.34375H22.5C23.1333 5.34375 23.6745 5.7715 23.848 6.35151L13.5001 13.5951L3.15199 6.35143ZM3.09375 8.37051V20.25C3.09375 21.0215 3.72849 21.6562 4.5 21.6562H22.5C23.2715 21.6562 23.9063 21.0215 23.9063 20.25V8.37062L13.9839 15.3162C13.6934 15.5196 13.3067 15.5196 13.0162 15.3162L3.09375 8.37051ZM25.5938 6.76498V20.25C25.5938 21.9535 24.2035 23.3437 22.5 23.3437H4.5C2.79651 23.3437 1.40625 21.9535 1.40625 20.25V6.75C1.40625 5.04651 2.79651 3.65625 4.5 3.65625H22.5C24.197 3.65625 25.5832 5.03598 25.5937 6.73062C25.5939 6.74208 25.594 6.75354 25.5938 6.76498Z" fill="white"/>
</g>
</g>
<defs>
<filter id="filter0_d_2851_259" x="-3.59375" y="-1.34375" width="34.1877" height="29.6875" filterUnits="userSpaceOnUse" color-interpolation-filters="sRGB">
<feFlood flood-opacity="0" result="BackgroundImageFix"/>
<feColorMatrix in="SourceAlpha" type="matrix" values="0 0 0 0 0 0 0 0 0 0 0 0 0 0 0 0 0 0 127 0" result="hardAlpha"/>
<feOffset/>
<feGaussianBlur stdDeviation="2.5"/>
<feComposite in2="hardAlpha" operator="out"/>
<feColorMatrix type="matrix" values="0 0 0 0 0 0 0 0 0 0 0 0 0 0 0 0 0 0 0.3 0"/>
<feBlend mode="normal" in2="BackgroundImageFix" result="effect1_dropShadow_2851_259"/>
<feBlend mode="normal" in="SourceGraphic" in2="effect1_dropShadow_2851_259" result="shape"/>
</filter>
<clipPath id="clip0_2851_259">
<rect width="27" height="27" fill="white"/>
</clipPath>
</defs>
</svg>
