<svg width="27" height="27" viewBox="0 0 27 27" fill="none" xmlns="http://www.w3.org/2000/svg">
<path d="M0 6.74059C0 7.87029 0.414226 9.11297 0.941423 10.431C1.46862 11.749 2.14644 12.9916 2.67364 13.9331C4.1046 16.4184 5.94979 18.8661 8.05858 20.8996C10.1674 22.9331 12.6527 24.6276 15.4393 25.6444C17.0586 26.2845 18.6778 27 20.4854 27C21.3891 27 22.6695 26.6611 23.8368 26.1715C24.9665 25.682 25.9833 24.9289 26.3598 24.0251C26.5105 23.6862 26.6987 23.2343 26.8117 22.7071C26.9247 22.2176 27 21.728 27 21.3891C27 21.2008 27 21.0126 26.9623 20.9749C26.8494 20.749 26.5858 20.5607 26.2845 20.3724C25.6067 20.0335 25.4937 19.9205 24.477 19.318C23.4226 18.7155 22.3305 18.0377 21.3891 17.5481C20.9372 17.2845 20.636 17.1715 20.523 17.1715C19.9205 17.1715 19.1674 18 18.5272 18.9038C17.8494 19.8075 17.0962 20.636 16.569 20.636C16.3054 20.636 16.0418 20.523 15.7406 20.3347C15.4393 20.1464 15.1381 19.9958 14.9498 19.8828C11.636 18 9.41423 15.7782 7.53138 12.5021C7.30544 12.1255 6.77824 11.3347 6.77824 10.9205C6.77824 10.431 7.45607 9.86611 8.13389 9.2636C8.77406 8.69874 9.45188 8.02092 9.45188 7.19247C9.45188 7.0795 9.37657 6.74059 9.22594 6.25105C8.88703 5.27197 8.43515 4.14226 8.05858 3.05021C7.87029 2.52301 7.71967 2.14644 7.68201 1.95816C7.60669 1.84519 7.56904 1.69456 7.53138 1.50628C7.49372 1.31799 7.41841 1.16736 7.38075 1.01674C7.26778 0.677824 7.0795 0.414226 6.89121 0.263598C6.70293 0.188285 6.25105 0.0753138 5.79916 0.0376569C5.34728 0.0376569 4.82008 0 4.59414 0C4.48117 0 4.33054 0 4.17992 0.0376569H3.69038C2.48536 0.564854 1.61925 1.61925 0.979079 2.86192C0.376569 4.1046 0 5.49791 0 6.74059Z" fill="white"/>
</svg>
